:SAMPLES-PER-SECOND 24
:FULLY-SPECIFIED
:DEGREES
83
root  -0.851733 41.619 30.839 173.762 60.441 176.913
RightUpLeg  3.985 -13.0322 -17.4727
RightLeg  15.7725 11.0735 3.44934
RightFoot  10.1349 -4.42292 23.3989
RightToes  -1.74623e-010 0 -2.59999e-017
Spine  0.782291 2.3935 2.25566
Spine1  16.274 3.71522 -4.49634
HEad  -20.3052 47.6422 -24.7213
LeftShoulder1  2.06698 -3.71064 -22.3399
LeftArm  7.97279 17.0144 -47.4862
LeftForeArm  31.2489 -44.7803 -8.93763
LeftHand  -0.497643 1.96364 16.7505
RightShoulder  3.05305 5.45568 28.1236
RightArm  18.7814 -12.4391 46.9623
RightForeArm  148.258 59.5346 161.171
RightHand  -0.0289855 -4.51359 -0.644236
LeftUpLeg  -2.20562 17.3145 10.8221
LeftLeg  18.094 -3.96221 -1.42391
LeftFoot  14.5698 2.66159 -11.927
LeftToes  -6.27559e-011 -2.10356e-011 8.24929e-012
84
root  -0.932503 41.7566 30.9398 173.267 60.646 176.503
RightUpLeg  3.36249 -12.772 -17.5883
RightLeg  17.68 8.88748 2.96109
RightFoot  11.1894 -4.13951 20.9491
RightToes  -1.74623e-010 0 -2.59999e-017
Spine  1.12019 2.68049 1.91901
Spine1  16.7664 4.00266 -4.25939
HEad  -21.0852 46.6242 -24.4673
LeftShoulder1  1.99675 -3.88335 -20.615
LeftArm  12.2958 17.3358 -48.9983
LeftForeArm  30.0134 -44.9717 -9.09025
LeftHand  -0.532504 1.51405 15.8807
RightShoulder  2.7973 5.18583 26.1663
RightArm  19.6608 -9.13225 46.8074
RightForeArm  149.499 56.7114 163.106
RightHand  -0.00497043 -4.11817 1.52459
LeftUpLeg  -2.77142 13.0083 10.6202
LeftLeg  18.3015 -2.86689 -0.851986
LeftFoot  14.5797 1.7153 -7.83403
LeftToes  -6.27559e-011 -2.10356e-011 8.24929e-012
85
root  -1.12657 41.3067 31.1223 172.141 60.5738 175.937
RightUpLeg  2.83809 -11.618 -17.8369
RightLeg  21.8807 7.74675 3.20136
RightFoot  9.00113 -3.08097 17.3739
RightToes  -1.74623e-010 0 -2.59999e-017
Spine  3.23894 2.71285 1.42899
Spine1  16.091 3.97391 -4.36801
HEad  -21.5771 46.0989 -24.5939
LeftShoulder1  2.0013 -4.08819 -19.8992
LeftArm  16.6499 16.0645 -48.3581
LeftForeArm  27.2034 -45.9166 -9.63245
LeftHand  -0.460461 1.21667 12.7482
RightShoulder  2.5473 4.83692 24.4432
RightArm  17.482 -3.70598 46.1993
RightForeArm  146.156 55.7 163.434
RightHand  -0.0284633 -5.47319 -1.30097
LeftUpLeg  -3.70618 9.09308 10.8082
LeftLeg  20.3068 -0.741468 0.0458071
LeftFoot  14.3151 1.31541 -6.09071
LeftToes  -6.27559e-011 -2.10356e-011 8.24929e-012
86
root  -1.31856 40.169 31.3391 171.233 60.5329 175.383
RightUpLeg  1.86157 -10.9697 -18.3896
RightLeg  27.2829 8.34803 4.43341
RightFoot  0.947165 -1.84848 17.2257
RightToes  -1.74623e-010 0 -2.59999e-017
Spine  5.25138 2.71399 0.94659
Spine1  15.0566 3.92543 -4.73834
HEad  -21.3656 45.8162 -23.9455
LeftShoulder1  2.05062 -4.38766 -19.5003
LeftArm  18.9176 14.717 -47.1535
LeftForeArm  26.1856 -47.2492 -10.2154
LeftHand  -0.429538 1.03699 11.4421
RightShoulder  2.46191 4.73541 23.7467
RightArm  11.9172 2.78048 44.2259
RightForeArm  143.512 57.0679 162.41
RightHand  -0.0209373 -5.60588 -3.71765
LeftUpLeg  -5.43756 7.84793 11.8767
LeftLeg  25.1443 -1.86746 -0.607372
LeftFoot  9.26992 1.873 -10.6455
LeftToes  -6.27559e-011 -2.10356e-011 8.24929e-012
87
root  -1.52566 38.4944 31.5354 171.138 60.5427 175.301
RightUpLeg  -0.0918293 -11.9819 -19.2089
RightLeg  33.9944 9.51455 6.60876
RightFoot  -11.6553 -0.0343455 16.4255
RightToes  -1.74623e-010 0 -2.59999e-017
Spine  6.05555 2.74416 0.485626
Spine1  15.3497 3.75554 -4.36646
HEad  -22.8579 45.2291 -24.6715
LeftShoulder1  2.00119 -4.32095 -19.0574
LeftArm  20.6954 11.4715 -46.6007
LeftForeArm  24.0206 -47.5299 -10.487
LeftHand  -0.478381 1.11811 12.9774
RightShoulder  2.42877 4.66033 23.6079
RightArm  4.44508 10.9368 40.8434
RightForeArm  139.304 60.0912 159.991
RightHand  0.0158373 -6.21155 -6.10113
LeftUpLeg  -8.11783 9.20106 13.1523
LeftLeg  32.5369 -4.60123 -2.79304
LeftFoot  -3.23549 1.04613 -14.4295
LeftToes  -6.27559e-011 -2.10356e-011 8.24929e-012
